<svg width="32" height="32" viewBox="0 0 32 32" fill="none" xmlns="http://www.w3.org/2000/svg">
<path d="M9.99994 23C10.0937 22.907 10.1681 22.7964 10.2188 22.6746C10.2696 22.5527 10.2957 22.422 10.2957 22.29C10.2957 22.158 10.2696 22.0273 10.2188 21.9054C10.1681 21.7835 10.0937 21.6729 9.99994 21.58L5.39994 16.98L28.9399 16.98C29.2052 16.98 29.4595 16.8746 29.647 16.6871C29.8346 16.4995 29.9399 16.2452 29.9399 15.98C29.9399 15.7148 29.8346 15.4604 29.647 15.2729C29.4595 15.0853 29.2052 14.98 28.9399 14.98L5.41994 14.98L9.99994 10.41C10.1862 10.2226 10.2907 9.96916 10.2907 9.70498C10.2907 9.44079 10.1862 9.18734 9.99994 8.99998C9.81258 8.81373 9.55913 8.70918 9.29494 8.70918C9.03076 8.70918 8.7773 8.81373 8.58994 8.99998L2.22994 15.36C2.14434 15.4421 2.07623 15.5407 2.0297 15.6498C1.98317 15.7589 1.95918 15.8763 1.95918 15.995C1.95918 16.1136 1.98317 16.231 2.0297 16.3401C2.07623 16.4493 2.14434 16.5478 2.22994 16.63L8.57994 23C8.6729 23.0937 8.78351 23.1681 8.90536 23.2189C9.02722 23.2696 9.15793 23.2958 9.28994 23.2958C9.42195 23.2958 9.55266 23.2696 9.67452 23.2189C9.79638 23.1681 9.90698 23.0937 9.99994 23Z" fill="#2E2B22"/>
</svg>
