<svg width="1728" height="796" viewBox="0 0 1728 796" fill="none" xmlns="http://www.w3.org/2000/svg">
<path d="M2464.06 375.434C2451.6 375.434 2441.51 385.476 2441.51 397.866C2441.51 488.973 2332.03 563.066 2197.46 563.066C2113.65 563.066 2056.76 523.448 2014.27 475.548C2016.8 450.494 2018.15 424.507 2018.15 397.866C2018.15 385.476 2008.06 375.434 1995.6 375.434C1983.15 375.434 1973.05 385.476 1973.05 397.866C1973.05 405.596 1972.92 413.292 1972.67 420.918C1964.59 408.909 1957.06 397.072 1949.92 385.89C1899.75 307 1823.92 187.802 1664.28 187.802C1646.31 187.802 1628.62 189.01 1611.34 191.287C1574.78 75.8849 1508 0.169434 1430.09 0.169434C1352.17 0.169434 1286.68 74.401 1249.91 187.871C1247.2 187.871 1244.49 187.802 1241.79 187.802C1087.8 187.802 989.905 246.158 921.01 307.828C907.273 310.279 894.542 315.49 883.476 322.806C865.333 136.865 780.724 0.169434 676.029 0.169434C595.653 0.169434 527.14 80.7509 491.409 202.261C456.303 212.2 424.076 227.04 396.463 246.4C371.486 263.897 351.504 284.189 336.935 306.379C285.94 309.105 245.318 349.103 245.318 397.9C245.318 423.714 221.972 444.731 193.284 444.731C164.595 444.731 141.248 423.714 141.248 397.9C141.248 390.826 137.953 384.545 132.853 380.438C128.17 165.819 37.2477 0.169434 -77.9924 0.169434C-171.274 0.169434 -248.633 108.704 -277.217 263.897C-323.32 221.001 -384.201 187.802 -468.394 187.802C-544.399 187.802 -615.965 208.611 -669.873 246.366C-726.383 285.949 -757.535 339.785 -757.535 397.866C-757.535 410.255 -747.44 420.297 -734.986 420.297C-722.533 420.297 -712.438 410.255 -712.438 397.866C-712.438 306.758 -602.956 232.665 -468.394 232.665C-384.583 232.665 -327.691 272.283 -285.196 320.183C-287.728 345.237 -289.081 371.224 -289.081 397.866C-289.081 410.255 -278.986 420.297 -266.533 420.297C-254.079 420.297 -243.984 410.255 -243.984 397.866C-243.984 390.135 -243.845 382.439 -243.602 374.813C-235.52 386.822 -227.992 398.659 -220.846 409.841C-170.684 488.731 -94.8517 607.93 64.7916 607.93C82.7264 607.93 100.418 606.722 117.729 604.409C154.292 719.812 221.07 795.562 299.018 795.562C376.967 795.562 442.427 721.296 479.198 607.826C481.904 607.826 484.61 607.93 487.316 607.93C641.305 607.93 739.2 549.573 808.094 487.903C821.831 485.453 834.563 480.242 845.629 472.925C863.772 658.867 948.381 795.562 1053.08 795.562C1133.49 795.562 1202.03 714.911 1237.73 593.297C1272.77 583.289 1304.99 568.312 1332.68 548.848C1357.45 531.42 1377.32 511.335 1391.86 489.421C1443.03 486.867 1483.82 446.767 1483.82 397.866C1483.82 372.052 1507.17 351.035 1535.86 351.035C1564.54 351.035 1587.89 372.052 1587.89 397.866C1587.89 404.94 1591.19 411.221 1596.29 415.328C1600.97 629.947 1691.89 795.596 1807.13 795.596C1900.41 795.596 1977.77 687.062 2006.36 531.869C2052.46 574.765 2113.31 607.964 2197.53 607.964C2273.37 607.964 2344.93 586.982 2399.08 548.882C2455.59 509.127 2486.67 455.498 2486.67 397.9C2486.67 385.511 2476.58 375.468 2464.13 375.468L2464.06 375.434ZM1430.05 44.9982C1485.83 44.9982 1536.2 107.117 1566.49 199.88C1538.11 207.162 1511.47 217.619 1487.46 231.009C1433.69 209.302 1368.65 194.704 1297.08 189.7C1327.65 102.596 1376.35 44.9982 1430.09 44.9982H1430.05ZM1587.93 291.263C1574.01 278.598 1557.64 266.83 1539.15 256.063C1551.61 250.99 1564.79 246.676 1578.56 243.191C1582.2 258.651 1585.36 274.699 1587.93 291.263ZM1375.14 397.866C1375.14 412.809 1372.12 427.303 1366.6 441.072C1347.8 433.998 1334.55 417.295 1334.55 397.866C1334.55 357.868 1307.25 323.772 1269.33 311.279C1272.7 284.154 1277.59 258.203 1283.76 233.873C1341.63 237.22 1395.71 247.366 1442.05 262.482C1398.69 299.995 1375.1 347.308 1375.1 397.866H1375.14ZM737.882 397.866C737.882 347.308 694.311 306.172 640.75 306.172C587.188 306.172 543.618 347.308 543.618 397.866C543.618 418.261 529.048 435.585 508.789 442.004C509.587 427.544 510.038 412.809 510.038 397.866C510.038 341.372 516.664 287.467 528.354 239.533C550.417 235.081 573.763 232.665 597.942 232.665C724.318 232.665 789.466 322.668 836.332 395.553C821.901 411.428 806.29 428.166 788.807 444.661C760.638 444.109 737.916 423.369 737.916 397.9L737.882 397.866ZM353.863 397.866C353.863 382.923 356.882 368.428 362.397 354.659C381.199 361.733 394.451 378.436 394.451 397.866C394.451 437.863 421.752 471.959 459.668 484.452C456.303 511.577 451.412 537.529 445.237 561.858C387.201 558.511 332.98 548.296 286.53 533.111C330.17 495.461 353.898 448.181 353.898 397.866H353.863ZM940.229 351.07C968.397 351.622 991.119 372.363 991.119 397.831C991.119 448.389 1034.69 489.525 1088.25 489.525C1141.81 489.525 1185.38 448.389 1185.38 397.831C1185.38 377.436 1199.95 360.111 1220.21 353.692C1219.41 368.152 1218.96 382.888 1218.96 397.831C1218.96 454.324 1212.34 508.229 1200.65 556.164C1178.58 560.616 1155.24 563.032 1131.06 563.032C1004.68 563.032 939.535 473.029 892.669 400.143C907.1 384.269 922.71 367.531 940.194 351.035L940.229 351.07ZM1224.3 307.035C1176.95 313.108 1140.32 351.518 1140.32 397.866C1140.32 423.679 1116.97 444.696 1088.29 444.696C1059.6 444.696 1036.25 423.679 1036.25 397.866C1036.25 361.802 1014.08 330.571 981.961 315.593C1041.87 270.212 1121.66 233.631 1237.38 232.734C1231.8 256.305 1227.43 281.152 1224.3 307.035ZM675.995 44.9982C753.111 44.9982 819.958 163.714 837.477 318.043C787.592 252.439 715.507 187.767 597.908 187.767C579.036 187.767 560.477 189.044 542.334 191.563C572.862 103.424 621.878 44.9982 675.96 44.9982H675.995ZM478.713 253.751C469.797 298.235 464.906 346.756 464.906 397.831C464.906 411.187 464.524 424.369 463.796 437.38C449.226 429.063 439.513 414.465 439.513 397.831C439.513 362.078 417.728 331.088 386.056 315.973C408.049 289.987 440.137 268.418 478.713 253.751ZM290.346 397.866C290.346 381.611 299.608 367.255 313.623 358.869C310.432 371.569 308.732 384.614 308.732 397.866C308.732 443.143 281.639 484.245 237.895 514.131C221.695 506.607 207.021 498.359 194.081 489.559C247.226 489.111 290.311 448.147 290.311 397.9L290.346 397.866ZM141.179 505.262C154.812 517.582 170.908 529.177 189.363 539.841C177.049 544.81 164.005 549.089 150.406 552.541C146.799 537.322 143.711 521.55 141.179 505.262ZM64.7223 563.066C-70.0831 563.066 -135.231 460.64 -182.826 385.856C-198.263 361.595 -216.128 333.504 -238.121 306.241C-218.591 157.674 -153.2 44.9638 -78.0965 44.9638C11.1956 44.9638 86.7157 204.194 87.8605 393.586C87.5829 394.967 87.4442 396.382 87.4442 397.831C87.4442 401.593 87.6176 405.32 87.9645 409.047C88.7277 463.228 94.9719 514.372 105.726 560.65C92.3701 562.169 78.7024 563.032 64.7223 563.032V563.066ZM298.949 750.733C243.168 750.733 192.728 688.58 162.479 595.747C190.578 588.466 216.977 578.044 240.878 564.723C296.139 586.982 361.773 601.131 431.916 606.031C401.354 693.135 352.649 750.767 298.914 750.767L298.949 750.733ZM504.695 488.697C552.047 482.623 588.68 444.213 588.68 397.866C588.68 372.052 612.026 351.035 640.715 351.035C669.404 351.035 692.75 372.052 692.75 397.866C692.75 433.929 714.917 465.161 747.04 480.138C687.13 525.519 607.343 562.1 491.617 562.997C497.203 539.427 501.573 514.579 504.695 488.697ZM1053.01 750.733C975.89 750.733 909.042 632.018 891.524 477.688C941.408 543.292 1013.49 607.964 1131.09 607.964C1149.96 607.964 1168.52 606.653 1186.67 604.133C1156.14 692.307 1107.12 750.767 1053.01 750.767V750.733ZM1250.29 541.946C1259.2 497.462 1264.09 448.941 1264.09 397.866C1264.09 384.51 1264.48 371.327 1265.2 358.317C1279.77 366.634 1289.49 381.232 1289.49 397.866C1289.49 433.618 1311.27 464.608 1342.94 479.724C1320.95 505.71 1288.86 527.279 1250.29 541.946ZM1438.65 397.866C1438.65 414.154 1429.36 428.511 1415.27 436.897C1418.5 424.162 1420.23 411.117 1420.23 397.866C1420.23 352.588 1447.33 311.486 1491.07 281.6C1507.27 289.124 1521.95 297.372 1534.88 306.172C1481.74 306.621 1438.65 347.584 1438.65 397.831V397.866ZM1807.06 750.733C1717.77 750.733 1642.25 591.503 1641.11 402.11C1641.38 400.73 1641.52 399.315 1641.52 397.866C1641.52 394.173 1641.35 390.48 1641 386.822C1640.24 332.572 1633.99 281.359 1623.24 235.046C1636.6 233.528 1650.26 232.665 1664.24 232.665C1799.05 232.665 1864.2 335.091 1911.79 409.875C1927.23 434.136 1945.09 462.227 1967.09 489.49C1947.56 638.057 1882.17 750.767 1807.06 750.767V750.733Z" fill="white" fill-opacity="0.05"/>
</svg>
