<svg width="342" height="84" viewBox="0 0 342 84" fill="none" xmlns="http://www.w3.org/2000/svg">
<path d="M338.84 39.6259C337.534 39.6259 336.474 40.6799 336.474 41.9801C336.474 51.5418 324.987 59.318 310.867 59.318C302.073 59.318 296.103 55.1601 291.644 50.1329C291.91 47.5035 292.052 44.7762 292.052 41.9801C292.052 40.6799 290.993 39.6259 289.686 39.6259C288.379 39.6259 287.32 40.6799 287.32 41.9801C287.32 42.7914 287.305 43.5991 287.28 44.3995C286.432 43.1391 285.642 41.8968 284.892 40.7233C279.629 32.4437 271.672 19.9338 254.92 19.9338C253.035 19.9338 251.178 20.0606 249.366 20.2996C245.529 8.18808 238.522 0.241699 230.347 0.241699C222.171 0.241699 215.299 8.03234 211.44 19.941C211.156 19.941 210.873 19.9338 210.589 19.9338C194.431 19.9338 184.159 26.0584 176.93 32.5307C175.488 32.7878 174.152 33.3347 172.991 34.1025C171.087 14.5879 162.209 0.241699 151.224 0.241699C142.79 0.241699 135.601 8.69876 131.852 21.4514C128.168 22.4945 124.787 24.0519 121.889 26.0837C119.268 27.92 117.172 30.0497 115.643 32.3785C110.292 32.6647 106.03 36.8624 106.03 41.9837C106.03 44.6929 103.58 46.8986 100.57 46.8986C97.5594 46.8986 95.1097 44.6929 95.1097 41.9837C95.1097 41.2412 94.7639 40.5821 94.2288 40.1511C93.7374 17.6267 84.1969 0.241699 72.1049 0.241699C62.3169 0.241699 54.1997 11.6325 51.2003 27.92C46.3628 23.418 39.9746 19.9338 31.1403 19.9338C23.1651 19.9338 15.6557 22.1178 9.99918 26.0801C4.06962 30.2344 0.800903 35.8845 0.800903 41.9801C0.800903 43.2804 1.86014 44.3343 3.1669 44.3343C4.47366 44.3343 5.5329 43.2804 5.5329 41.9801C5.5329 32.4184 17.0207 24.6422 31.1403 24.6422C39.9345 24.6422 45.9041 28.8001 50.3631 33.8273C50.0974 36.4568 49.9555 39.184 49.9555 41.9801C49.9555 43.2804 51.0147 44.3343 52.3215 44.3343C53.6282 44.3343 54.6875 43.2804 54.6875 41.9801C54.6875 41.1688 54.702 40.3611 54.7275 39.5607C55.5756 40.8211 56.3655 42.0634 57.1153 43.2369C62.3788 51.5165 70.3358 64.0264 87.0871 64.0264C88.969 64.0264 90.8254 63.8996 92.6417 63.657C96.4783 75.7685 103.485 83.7185 111.664 83.7185C119.843 83.7185 126.712 75.9243 130.571 64.0156C130.854 64.0156 131.138 64.0264 131.422 64.0264C147.58 64.0264 157.852 57.9018 165.081 51.4296C166.523 51.1724 167.859 50.6255 169.02 49.8577C170.924 69.3723 179.802 83.7185 190.787 83.7185C199.225 83.7185 206.417 75.2542 210.163 62.4907C213.839 61.4404 217.221 59.8685 220.125 57.8258C222.724 55.9967 224.81 53.8888 226.335 51.5889C231.704 51.3209 235.985 47.1123 235.985 41.9801C235.985 39.2709 238.435 37.0652 241.445 37.0652C244.455 37.0652 246.905 39.2709 246.905 41.9801C246.905 42.7226 247.251 43.3818 247.786 43.8128C248.277 66.3372 257.818 83.7221 269.91 83.7221C279.698 83.7221 287.815 72.3314 290.814 56.0438C295.652 60.5458 302.036 64.03 310.874 64.03C318.831 64.03 326.341 61.8279 332.023 57.8294C337.952 53.657 341.214 48.0286 341.214 41.9837C341.214 40.6835 340.154 39.6295 338.848 39.6295L338.84 39.6259ZM230.343 4.9465C236.196 4.9465 241.481 11.4659 244.659 21.2014C241.682 21.9657 238.886 23.0631 236.367 24.4684C230.725 22.1902 223.9 20.6582 216.391 20.133C219.598 10.9914 224.708 4.9465 230.347 4.9465H230.343ZM246.909 30.7922C245.449 29.4629 243.731 28.2279 241.791 27.0978C243.098 26.5654 244.481 26.1127 245.926 25.7469C246.308 27.3695 246.639 29.0537 246.909 30.7922ZM224.581 41.9801C224.581 43.5484 224.264 45.0696 223.685 46.5147C221.712 45.7722 220.322 44.0192 220.322 41.9801C220.322 37.7824 217.457 34.204 213.479 32.8928C213.832 30.046 214.345 27.3224 214.993 24.769C221.065 25.1203 226.739 26.1851 231.602 27.7715C227.052 31.7085 224.577 36.6741 224.577 41.9801H224.581ZM157.714 41.9801C157.714 36.6741 153.142 32.3568 147.522 32.3568C141.902 32.3568 137.33 36.6741 137.33 41.9801C137.33 44.1206 135.801 45.9388 133.675 46.6125C133.759 45.0949 133.807 43.5484 133.807 41.9801C133.807 36.0511 134.502 30.3938 135.728 25.363C138.043 24.8958 140.493 24.6422 143.03 24.6422C156.291 24.6422 163.127 34.0881 168.044 41.7374C166.53 43.4035 164.892 45.1601 163.058 46.8914C160.102 46.8334 157.718 44.6567 157.718 41.9837L157.714 41.9801ZM117.419 41.9801C117.419 40.4118 117.736 38.8907 118.315 37.4455C120.288 38.188 121.678 39.941 121.678 41.9801C121.678 46.1778 124.543 49.7563 128.521 51.0674C128.168 53.9142 127.655 56.6378 127.007 59.1912C120.917 58.8399 115.228 57.7678 110.354 56.1742C114.933 52.2227 117.423 47.2608 117.423 41.9801H117.419ZM178.946 37.0688C181.902 37.1268 184.286 39.3035 184.286 41.9765C184.286 47.2825 188.858 51.5998 194.478 51.5998C200.098 51.5998 204.67 47.2825 204.67 41.9765C204.67 39.836 206.199 38.0178 208.325 37.3441C208.241 38.8617 208.194 40.4082 208.194 41.9765C208.194 47.9055 207.498 53.5628 206.272 58.5936C203.957 59.0608 201.507 59.3144 198.97 59.3144C185.709 59.3144 178.873 49.8685 173.956 42.2191C175.47 40.5531 177.108 38.7965 178.943 37.0652L178.946 37.0688ZM208.754 32.4474C203.785 33.0848 199.942 37.1159 199.942 41.9801C199.942 44.6893 197.492 46.895 194.482 46.895C191.471 46.895 189.022 44.6893 189.022 41.9801C189.022 38.1952 186.696 34.9175 183.325 33.3456C189.611 28.5828 197.983 24.7436 210.126 24.6495C209.54 27.1232 209.082 29.731 208.754 32.4474ZM151.22 4.9465C159.312 4.9465 166.326 17.4057 168.164 33.6027C162.93 26.7176 155.366 19.9302 143.027 19.9302C141.046 19.9302 139.099 20.0642 137.195 20.3286C140.399 11.0783 145.542 4.9465 151.217 4.9465H151.22ZM130.52 26.8552C129.584 31.5238 129.071 36.6161 129.071 41.9765C129.071 43.3782 129.031 44.7617 128.954 46.1271C127.426 45.2543 126.406 43.7222 126.406 41.9765C126.406 38.2242 124.12 34.9718 120.797 33.3854C123.105 30.6581 126.472 28.3945 130.52 26.8552ZM110.754 41.9801C110.754 40.2742 111.726 38.7675 113.197 37.8874C112.862 39.2202 112.684 40.5893 112.684 41.9801C112.684 46.732 109.841 51.0456 105.251 54.1822C103.551 53.3926 102.011 52.527 100.653 51.6034C106.23 51.5563 110.751 47.2572 110.751 41.9837L110.754 41.9801ZM95.1024 53.2514C96.5329 54.5444 98.2219 55.7613 100.158 56.8805C98.8661 57.402 97.4975 57.8511 96.0706 58.2133C95.6921 56.6161 95.3681 54.9609 95.1024 53.2514ZM87.0798 59.318C72.9348 59.318 66.0989 48.5683 61.1048 40.7197C59.485 38.1735 57.6104 35.2253 55.3026 32.364C57.3519 16.7719 64.2133 4.94289 72.0939 4.94289C81.4633 4.94289 89.3876 21.6542 89.5077 41.531C89.4786 41.6759 89.464 41.8244 89.464 41.9765C89.464 42.3713 89.4822 42.7624 89.5186 43.1536C89.5987 48.8399 90.2539 54.2075 91.3823 59.0645C89.9809 59.2238 88.5467 59.3144 87.0798 59.3144V59.318ZM111.657 79.0137C105.804 79.0137 100.511 72.4907 97.3373 62.7479C100.286 61.9837 103.056 60.8899 105.564 59.4918C111.362 61.8279 118.249 63.3129 125.609 63.8272C122.402 72.9688 117.292 79.0173 111.653 79.0173L111.657 79.0137ZM133.246 51.5129C138.215 50.8754 142.058 46.8443 142.058 41.9801C142.058 39.2709 144.508 37.0652 147.518 37.0652C150.529 37.0652 152.978 39.2709 152.978 41.9801C152.978 45.765 155.304 49.0428 158.675 50.6146C152.389 55.3774 144.017 59.2166 131.874 59.3107C132.46 56.837 132.918 54.2293 133.246 51.5129ZM190.78 79.0137C182.688 79.0137 175.674 66.5545 173.836 50.3575C179.07 57.2427 186.634 64.03 198.973 64.03C200.954 64.03 202.901 63.8924 204.805 63.628C201.602 72.8819 196.458 79.0173 190.78 79.0173V79.0137ZM211.48 57.1014C212.416 52.4328 212.929 47.3405 212.929 41.9801C212.929 40.5784 212.969 39.1949 213.046 37.8294C214.574 38.7023 215.594 40.2344 215.594 41.9801C215.594 45.7324 217.88 48.9848 221.203 50.5712C218.895 53.2984 215.528 55.5621 211.48 57.1014ZM231.246 41.9801C231.246 43.6896 230.27 45.1963 228.792 46.0764C229.131 44.74 229.313 43.3709 229.313 41.9801C229.313 37.2282 232.156 32.9146 236.746 29.778C238.446 30.5676 239.985 31.4332 241.343 32.3568C235.767 32.4039 231.246 36.703 231.246 41.9765V41.9801ZM269.902 79.0137C260.533 79.0137 252.609 62.3024 252.489 42.4256C252.518 42.2807 252.532 42.1322 252.532 41.9801C252.532 41.5926 252.514 41.205 252.478 40.8211C252.398 35.1275 251.742 29.7527 250.614 24.8921C252.015 24.7328 253.45 24.6422 254.917 24.6422C269.062 24.6422 275.898 35.3919 280.892 43.2405C282.511 45.7867 284.386 48.7349 286.694 51.5962C284.644 67.1883 277.783 79.0173 269.902 79.0173V79.0137Z" fill="white"/>
</svg>
