<svg width="312" height="136" viewBox="0 0 312 136" fill="none" xmlns="http://www.w3.org/2000/svg">
<path d="M299.863 45.0133C298.743 45.0133 297.835 45.9148 297.835 47.0269C297.835 55.2055 287.988 61.8568 275.886 61.8568C268.348 61.8568 263.231 58.3004 259.409 54.0004C259.637 51.7513 259.759 49.4186 259.759 47.0269C259.759 45.9148 258.851 45.0133 257.731 45.0133C256.611 45.0133 255.703 45.9148 255.703 47.0269C255.703 47.7209 255.69 48.4117 255.668 49.0964C254.941 48.0183 254.264 46.9557 253.622 45.952C249.11 38.87 242.29 28.1697 227.932 28.1697C226.315 28.1697 224.724 28.2782 223.17 28.4826C219.882 18.1231 213.876 11.3262 206.868 11.3262C199.861 11.3262 193.97 17.9899 190.663 28.1759C190.42 28.1759 190.176 28.1697 189.933 28.1697C176.083 28.1697 167.279 33.4084 161.082 38.9444C159.847 39.1643 158.702 39.6321 157.707 40.2889C156.075 23.5971 148.465 11.3262 139.049 11.3262C131.82 11.3262 125.658 18.5599 122.444 29.4678C119.287 30.36 116.388 31.6921 113.905 33.43C111.659 35.0007 109.861 36.8223 108.551 38.8143C103.965 39.059 100.311 42.6495 100.311 47.03C100.311 49.3473 98.2113 51.234 95.6311 51.234C93.0508 51.234 90.9511 49.3473 90.9511 47.03C90.9511 46.395 90.6547 45.8311 90.196 45.4625C89.7748 26.1963 81.5973 11.3262 71.2327 11.3262C62.843 11.3262 55.8854 21.0692 53.3145 35.0007C49.168 31.15 43.6924 28.1697 36.1202 28.1697C29.2843 28.1697 22.8477 30.0378 17.9992 33.4269C12.9168 36.9803 10.115 41.8131 10.115 47.0269C10.115 48.1391 11.0229 49.0406 12.143 49.0406C13.2631 49.0406 14.171 48.1391 14.171 47.0269C14.171 38.8484 24.0177 32.1971 36.1202 32.1971C43.6581 32.1971 48.7749 35.7535 52.5969 40.0535C52.3692 42.3026 52.2475 44.6353 52.2475 47.0269C52.2475 48.1391 53.1554 49.0406 54.2755 49.0406C55.3956 49.0406 56.3035 48.1391 56.3035 47.0269C56.3035 46.333 56.316 45.6422 56.3378 44.9575C57.0648 46.0356 57.7418 47.0982 58.3845 48.1019C62.896 55.1838 69.7164 65.8842 84.0746 65.8842C85.6876 65.8842 87.2788 65.7757 88.8357 65.5682C92.1242 75.9277 98.1302 82.7277 105.141 82.7277C112.151 82.7277 118.039 76.0609 121.346 65.8749C121.589 65.8749 121.833 65.8842 122.076 65.8842C135.926 65.8842 144.731 60.6455 150.927 55.1095C152.162 54.8895 153.307 54.4217 154.303 53.765C155.934 70.4567 163.544 82.7277 172.96 82.7277C180.192 82.7277 186.358 75.4878 189.568 64.5706C192.719 63.6722 195.618 62.3277 198.107 60.5805C200.335 59.016 202.123 57.213 203.43 55.2458C208.032 55.0166 211.701 51.4167 211.701 47.0269C211.701 44.7097 213.801 42.823 216.381 42.823C218.962 42.823 221.061 44.7097 221.061 47.0269C221.061 47.662 221.358 48.2258 221.816 48.5945C222.238 67.8607 230.415 82.7308 240.78 82.7308C249.169 82.7308 256.127 72.9878 258.698 59.0563C262.844 62.907 268.317 65.8873 275.892 65.8873C282.713 65.8873 289.149 64.0037 294.019 60.5836C299.102 57.0147 301.897 52.2005 301.897 47.03C301.897 45.9179 300.989 45.0164 299.869 45.0164L299.863 45.0133ZM206.865 15.3504C211.882 15.3504 216.413 20.9267 219.136 29.254C216.584 29.9077 214.188 30.8464 212.029 32.0484C207.193 30.0998 201.343 28.7893 194.906 28.3401C197.655 20.5209 202.036 15.3504 206.868 15.3504H206.865ZM221.064 37.4574C219.813 36.3204 218.341 35.264 216.678 34.2975C217.798 33.8421 218.983 33.4548 220.222 33.1419C220.55 34.5298 220.834 35.9704 221.064 37.4574ZM201.926 47.0269C201.926 48.3684 201.655 49.6695 201.159 50.9056C199.468 50.2705 198.276 48.7711 198.276 47.0269C198.276 43.4364 195.821 40.3756 192.41 39.2542C192.713 36.8192 193.153 34.4895 193.708 32.3055C198.912 32.606 203.777 33.5168 207.945 34.8737C204.045 38.2412 201.923 42.4884 201.923 47.0269H201.926ZM144.612 47.0269C144.612 42.4884 140.693 38.7957 135.876 38.7957C131.059 38.7957 127.14 42.4884 127.14 47.0269C127.14 48.8578 125.83 50.413 124.007 50.9892C124.079 49.6912 124.12 48.3684 124.12 47.0269C124.12 41.9556 124.716 37.1166 125.767 32.8136C127.751 32.4139 129.851 32.1971 132.026 32.1971C143.392 32.1971 149.251 40.2765 153.467 46.8194C152.169 48.2444 150.765 49.7469 149.192 51.2278C146.659 51.1782 144.615 49.3163 144.615 47.03L144.612 47.0269ZM110.074 47.0269C110.074 45.6855 110.345 44.3844 110.841 43.1483C112.532 43.7834 113.724 45.2828 113.724 47.0269C113.724 50.6175 116.179 53.6782 119.59 54.7997C119.287 57.2347 118.847 59.5644 118.292 61.7484C113.072 61.4479 108.195 60.5309 104.018 59.1678C107.943 55.7879 110.077 51.5438 110.077 47.0269H110.074ZM162.811 42.8261C165.344 42.8757 167.388 44.7376 167.388 47.0239C167.388 51.5623 171.307 55.2551 176.124 55.2551C180.941 55.2551 184.86 51.5623 184.86 47.0239C184.86 45.193 186.17 43.6378 187.992 43.0616C187.921 44.3596 187.88 45.6824 187.88 47.0239C187.88 52.0952 187.284 56.9342 186.233 61.2372C184.248 61.6369 182.149 61.8537 179.974 61.8537C168.608 61.8537 162.749 53.7743 158.533 47.2314C159.831 45.8064 161.235 44.3039 162.808 42.823L162.811 42.8261ZM188.361 38.8731C184.102 39.4184 180.807 42.8664 180.807 47.0269C180.807 49.3442 178.707 51.2309 176.127 51.2309C173.547 51.2309 171.447 49.3442 171.447 47.0269C171.447 43.7896 169.453 40.9859 166.564 39.6414C171.953 35.5676 179.129 32.2838 189.537 32.2033C189.035 34.3192 188.641 36.5497 188.361 38.8731ZM139.046 15.3504C145.982 15.3504 151.994 26.0074 153.569 39.8614C149.083 33.9722 142.6 28.1666 132.023 28.1666C130.325 28.1666 128.656 28.2812 127.025 28.5074C129.77 20.5952 134.179 15.3504 139.043 15.3504H139.046ZM121.302 34.0899C120.501 38.0832 120.061 42.4389 120.061 47.0239C120.061 48.2228 120.026 49.4062 119.961 50.5741C118.65 49.8275 117.777 48.5171 117.777 47.0239C117.777 43.8144 115.817 41.0324 112.969 39.6755C114.947 37.3428 117.833 35.4065 121.302 34.0899ZM104.361 47.0269C104.361 45.5678 105.194 44.2791 106.454 43.5263C106.167 44.6663 106.014 45.8373 106.014 47.0269C106.014 51.0915 103.578 54.7811 99.6434 57.4639C98.1864 56.7886 96.8666 56.0482 95.7028 55.2582C100.483 55.2179 104.358 51.5407 104.358 47.03L104.361 47.0269ZM90.9448 56.6678C92.171 57.7737 93.6187 58.8146 95.2785 59.7719C94.1709 60.218 92.9978 60.6022 91.7747 60.912C91.4503 59.5458 91.1726 58.13 90.9448 56.6678ZM84.0684 61.8568C71.944 61.8568 66.0847 52.6621 61.804 45.9489C60.4156 43.771 58.8088 41.2493 56.8307 38.8019C58.5873 25.4652 64.4685 15.3473 71.2233 15.3473C79.2542 15.3473 86.0464 29.6413 86.1494 46.6428C86.1244 46.7667 86.112 46.8937 86.112 47.0239C86.112 47.3615 86.1275 47.6961 86.1588 48.0307C86.2274 52.8945 86.789 57.4856 87.7562 61.64C86.555 61.7763 85.3257 61.8537 84.0684 61.8537V61.8568ZM105.135 78.7035C100.118 78.7035 95.5812 73.1241 92.8605 64.7906C95.3877 64.1369 97.762 63.2013 99.9117 62.0055C104.882 64.0037 110.785 65.2739 117.094 65.7138C114.345 73.533 109.964 78.7066 105.131 78.7066L105.135 78.7035ZM123.639 55.1808C127.898 54.6355 131.193 51.1875 131.193 47.0269C131.193 44.7097 133.293 42.823 135.873 42.823C138.453 42.823 140.553 44.7097 140.553 47.0269C140.553 50.2643 142.547 53.068 145.436 54.4125C140.047 58.4863 132.871 61.7701 122.463 61.8506C122.965 59.7347 123.359 57.5042 123.639 55.1808ZM172.954 78.7035C166.018 78.7035 160.006 68.0465 158.43 54.1925C162.917 60.0817 169.4 65.8873 179.977 65.8873C181.674 65.8873 183.344 65.7695 184.975 65.5434C182.23 73.4587 177.821 78.7066 172.954 78.7066V78.7035ZM190.697 59.9609C191.499 55.9676 191.939 51.6119 191.939 47.0269C191.939 45.828 191.974 44.6446 192.039 43.4767C193.349 44.2233 194.223 45.5337 194.223 47.0269C194.223 50.2364 196.182 53.0184 199.031 54.3753C197.053 56.708 194.167 58.6443 190.697 59.9609ZM207.639 47.0269C207.639 48.4892 206.803 49.7779 205.536 50.5307C205.826 49.3876 205.982 48.2166 205.982 47.0269C205.982 42.9624 208.419 39.2728 212.353 36.59C213.81 37.2653 215.13 38.0057 216.294 38.7957C211.514 38.836 207.639 42.5132 207.639 47.0239V47.0269ZM240.773 78.7035C232.743 78.7035 225.95 64.4095 225.847 47.408C225.872 47.2841 225.885 47.1571 225.885 47.0269C225.885 46.6955 225.869 46.364 225.838 46.0356C225.769 41.1656 225.208 36.5683 224.241 32.4108C225.442 32.2745 226.671 32.1971 227.928 32.1971C240.053 32.1971 245.912 41.3918 250.193 48.105C251.581 50.2829 253.188 52.8046 255.166 55.252C253.409 68.5887 247.528 78.7066 240.773 78.7066V78.7035Z" fill="white"/>
<path d="M46.8469 114.977C45.8984 116.145 44.6754 117.096 43.1778 117.831C41.6802 118.565 39.8488 118.933 37.6866 118.933C35.7896 118.933 34.0456 118.586 32.4512 117.889C30.8569 117.192 29.4716 116.232 28.2985 115.008C27.1223 113.785 26.2019 112.316 25.5404 110.603C24.8759 108.89 24.5452 107.034 24.5452 105.039C24.5452 103.044 24.8759 101.151 25.5404 99.4752C26.205 97.7992 27.1223 96.3494 28.2985 95.1257C29.4748 93.902 30.86 92.9603 32.4512 92.3004C34.0456 91.6405 35.7896 91.3121 37.6866 91.3121C39.8862 91.3121 41.7052 91.6808 43.1497 92.415C44.5912 93.1492 45.7861 94.1003 46.7346 95.2682V79.5059H53.2772V118.373H47.0747L46.8469 114.984V114.977ZM41.9828 112.576C42.95 112.143 43.7831 111.56 44.4851 110.826C45.1871 110.092 45.7362 109.224 46.1356 108.227C46.5349 107.229 46.7346 106.164 46.7346 105.036C46.7346 103.908 46.5349 102.852 46.1356 101.873C45.7362 100.894 45.1871 100.045 44.4851 99.3296C43.7831 98.614 42.9376 98.0502 41.9548 97.635C40.9688 97.2199 39.908 97.0124 38.7692 97.0124C37.6304 97.0124 36.5228 97.2199 35.5556 97.635C34.5884 98.0502 33.7648 98.614 33.0815 99.3296C32.3982 100.045 31.8678 100.894 31.4872 101.873C31.1065 102.852 30.9193 103.905 30.9193 105.036C30.9193 106.167 31.1096 107.229 31.4872 108.227C31.8647 109.224 32.3982 110.092 33.0815 110.826C33.7648 111.56 34.5884 112.146 35.5556 112.576C36.5228 113.01 37.593 113.227 38.7692 113.227C39.9455 113.227 41.0156 113.01 41.9828 112.576Z" fill="white"/>
<path d="M62.8619 86.7302C62.3877 86.5413 61.9789 86.2686 61.6389 85.9124C61.2988 85.5561 61.0211 85.141 60.8152 84.6701C60.6061 84.1992 60.5032 83.6818 60.5032 83.118C60.5032 82.5914 60.6061 82.0926 60.8152 81.6217C61.0242 81.1508 61.2988 80.745 61.6389 80.4073C61.9789 80.0696 62.3877 79.797 62.8619 79.5895C63.3361 79.3819 63.8572 79.2797 64.425 79.2797C64.9929 79.2797 65.5139 79.385 65.9881 79.5895C66.4624 79.797 66.8773 80.0696 67.2393 80.4073C67.5981 80.745 67.8726 81.1508 68.0629 81.6217C68.2533 82.0926 68.3469 82.5914 68.3469 83.118C68.3469 83.6818 68.2533 84.2023 68.0629 84.6701C67.8726 85.141 67.5981 85.5561 67.2393 85.9124C66.8773 86.2717 66.4624 86.5444 65.9881 86.7302C65.5139 86.9192 64.9929 87.0121 64.425 87.0121C63.8572 87.0121 63.333 86.9192 62.8619 86.7302ZM61.1272 118.367V91.8697H67.6698V118.367H61.1272Z" fill="white"/>
<path d="M79.6163 109.327C79.6912 110.08 79.9002 110.73 80.2434 111.275C80.5835 111.821 81.011 112.273 81.5226 112.632C82.0343 112.992 82.6022 113.255 83.2293 113.422C83.8564 113.589 84.5085 113.676 85.1917 113.676C85.797 113.676 86.3773 113.611 86.9265 113.478C87.4756 113.348 87.9592 113.159 88.3773 112.914C88.7954 112.669 89.1354 112.36 89.4006 111.982C89.6658 111.607 89.8 111.173 89.8 110.684C89.8 110.12 89.6471 109.649 89.3445 109.271C89.0418 108.896 88.605 108.583 88.0372 108.338C87.4694 108.094 86.7954 107.886 86.0186 107.716C85.2417 107.545 84.3774 107.387 83.4289 107.236C82.4056 107.009 81.3323 106.765 80.2154 106.501C79.0953 106.238 78.0813 105.832 77.1702 105.287C76.2592 104.742 75.5104 104.026 74.9238 103.14C74.3342 102.254 74.0409 101.117 74.0409 99.7231C74.0409 98.2546 74.3529 96.9938 74.98 95.9374C75.6071 94.8841 76.4308 94.0166 77.4542 93.3382C78.4775 92.6597 79.635 92.161 80.9236 91.8419C82.2121 91.5228 83.5226 91.3617 84.8486 91.3617C86.1746 91.3617 87.5411 91.5507 88.8328 91.9255C90.1214 92.3035 91.2602 92.858 92.2461 93.5922C93.232 94.3264 94.0463 95.2496 94.6922 96.3618C95.338 97.474 95.6781 98.7813 95.7155 100.287H89.6284C89.5535 99.6859 89.3632 99.1469 89.0606 98.676C88.7579 98.2051 88.3679 97.8085 87.8937 97.4894C87.4194 97.1704 86.8984 96.9256 86.3306 96.7552C85.7627 96.5848 85.1543 96.5012 84.5085 96.5012C83.9781 96.5012 83.457 96.5663 82.9422 96.6995C82.4305 96.8327 81.975 97.0093 81.5757 97.2354C81.1763 97.4616 80.8456 97.7435 80.5804 98.0842C80.3152 98.4219 80.181 98.8185 80.181 99.2708C80.181 99.6487 80.284 99.9771 80.493 100.259C80.7021 100.541 81.0141 100.795 81.4322 101.021C81.8502 101.247 82.39 101.455 83.0546 101.644C83.7191 101.833 84.5053 102.022 85.4164 102.208C86.6301 102.434 87.8718 102.679 89.1417 102.942C90.4115 103.205 91.569 103.611 92.6111 104.156C93.6532 104.701 94.5174 105.436 95.2007 106.359C95.884 107.282 96.2241 108.534 96.2241 110.117C96.2241 111.585 95.884 112.877 95.2007 113.986C94.5174 115.098 93.6438 116.031 92.583 116.783C91.5191 117.536 90.2961 118.094 88.9139 118.45C87.5286 118.806 86.1153 118.986 84.6738 118.986C83.2324 118.986 81.8471 118.788 80.5211 118.391C79.192 117.995 78.0064 117.394 76.9643 116.585C75.9222 115.777 75.0861 114.77 74.4621 113.562C73.835 112.357 73.5229 110.944 73.5229 109.324H79.6101L79.6163 109.327Z" fill="white"/>
<path d="M112.301 117.886C110.841 117.189 109.656 116.257 108.745 115.089V129.383H102.202V91.8728H108.061L108.517 95.4881C109.35 94.2087 110.517 93.1926 112.014 92.4367C113.512 91.6839 115.381 91.3059 117.618 91.3059C119.552 91.3059 121.334 91.656 122.966 92.3499C124.597 93.047 125.998 94.0073 127.174 95.231C128.351 96.4547 129.271 97.9231 129.932 99.6363C130.597 101.349 130.928 103.224 130.928 105.256C130.928 107.288 130.594 109.088 129.932 110.764C129.268 112.44 128.347 113.89 127.174 115.114C125.998 116.337 124.613 117.279 123.022 117.939C121.427 118.596 119.683 118.927 117.786 118.927C115.587 118.927 113.755 118.58 112.295 117.883L112.301 117.886ZM119.927 112.604C120.894 112.189 121.708 111.625 122.373 110.91C123.037 110.194 123.558 109.348 123.936 108.366C124.313 107.387 124.504 106.353 124.504 105.259C124.504 104.166 124.313 103.066 123.936 102.068C123.555 101.071 123.034 100.203 122.373 99.469C121.708 98.7348 120.894 98.14 119.927 97.6908C118.959 97.2385 117.886 97.0123 116.713 97.0123C115.54 97.0123 114.457 97.2385 113.471 97.6908C112.485 98.1431 111.64 98.7348 110.941 99.469C110.239 100.203 109.69 101.071 109.291 102.068C108.891 103.066 108.692 104.131 108.692 105.259C108.692 106.387 108.891 107.387 109.291 108.366C109.69 109.345 110.239 110.194 110.941 110.91C111.643 111.625 112.485 112.189 113.471 112.604C114.457 113.019 115.537 113.227 116.713 113.227C117.889 113.227 118.959 113.019 119.927 112.604Z" fill="white"/>
<path d="M140.721 102.493H155.797C155.682 101.588 155.407 100.779 154.974 100.064C154.537 99.3482 153.988 98.7472 153.323 98.2546C152.658 97.7651 151.919 97.3903 151.105 97.1239C150.287 96.8605 149.464 96.7273 148.631 96.7273C147.417 96.7273 146.344 96.9442 145.417 97.3779C144.487 97.8116 143.72 98.4033 143.111 99.1561C142.503 99.9089 142.05 100.786 141.745 101.783C141.442 102.781 141.289 103.846 141.289 104.974C141.289 106.179 141.451 107.291 141.773 108.307C142.094 109.324 142.578 110.2 143.224 110.935C143.869 111.669 144.665 112.245 145.614 112.657C146.562 113.072 147.679 113.28 148.971 113.28C150.412 113.28 151.654 112.998 152.696 112.431C153.738 111.867 154.584 111.037 155.226 109.946L161.884 109.891C160.973 112.716 159.332 114.928 156.964 116.529C154.593 118.131 151.776 118.93 148.515 118.93C146.316 118.93 144.362 118.543 142.656 117.772C140.949 117 139.526 115.975 138.388 114.692C137.249 113.413 136.388 111.944 135.798 110.287C135.208 108.63 134.915 106.916 134.915 105.148C134.915 103.379 135.218 101.607 135.826 99.9492C136.431 98.2918 137.314 96.8234 138.472 95.5439C139.629 94.2644 141.061 93.2359 142.768 92.4645C144.475 91.6931 146.447 91.3059 148.687 91.3059C150.733 91.3059 152.593 91.625 154.262 92.2663C155.931 92.9076 157.363 93.8183 158.558 95.0049C159.753 96.1914 160.674 97.604 161.316 99.2429C161.962 100.882 162.284 102.682 162.284 104.639C162.284 105.055 162.274 105.429 162.256 105.77C162.237 106.108 162.19 106.449 162.112 106.786H140.606L140.718 102.493H140.721Z" fill="white"/>
<path d="M168.202 118.367V91.8697H173.949L174.517 96.6158C175.201 94.9584 176.261 93.6603 177.703 92.7186C179.144 91.7768 180.907 91.3059 182.994 91.3059C183.372 91.3059 183.724 91.3245 184.046 91.3617C184.367 91.3988 184.623 91.4546 184.813 91.5321V97.4058C184.701 97.3686 184.501 97.3314 184.217 97.2943C183.933 97.2571 183.659 97.2385 183.394 97.2385C182.105 97.2385 180.929 97.4461 179.865 97.8612C178.801 98.2763 177.893 98.868 177.135 99.6394C176.377 100.411 175.787 101.334 175.372 102.409C174.954 103.481 174.745 104.698 174.745 106.052V118.367H168.202Z" fill="white"/>
<path d="M193.518 109.327C193.593 110.08 193.802 110.73 194.145 111.275C194.485 111.821 194.913 112.273 195.425 112.632C195.936 112.992 196.504 113.255 197.131 113.422C197.758 113.589 198.41 113.676 199.094 113.676C199.699 113.676 200.279 113.611 200.828 113.478C201.378 113.348 201.861 113.159 202.279 112.914C202.697 112.669 203.037 112.36 203.303 111.982C203.568 111.607 203.702 111.173 203.702 110.684C203.702 110.12 203.549 109.649 203.246 109.271C202.944 108.896 202.507 108.583 201.939 108.338C201.371 108.094 200.697 107.886 199.92 107.716C199.144 107.545 198.279 107.387 197.331 107.236C196.307 107.009 195.234 106.765 194.117 106.501C192.997 106.238 191.983 105.832 191.072 105.287C190.161 104.742 189.412 104.026 188.826 103.14C188.236 102.254 187.943 101.117 187.943 99.7231C187.943 98.2546 188.255 96.9938 188.882 95.9374C189.509 94.8841 190.333 94.0166 191.356 93.3382C192.379 92.6597 193.537 92.161 194.826 91.8419C196.114 91.5228 197.424 91.3617 198.75 91.3617C200.076 91.3617 201.443 91.5507 202.732 91.9255C204.02 92.3035 205.159 92.858 206.145 93.5922C207.131 94.3264 207.945 95.2496 208.591 96.3618C209.237 97.474 209.577 98.7813 209.614 100.287H203.527C203.449 99.6859 203.262 99.1469 202.959 98.676C202.657 98.2051 202.267 97.8085 201.792 97.4894C201.318 97.1704 200.797 96.9256 200.229 96.7552C199.662 96.5848 199.053 96.5012 198.407 96.5012C197.877 96.5012 197.356 96.5663 196.844 96.6995C196.332 96.8327 195.877 97.0093 195.478 97.2354C195.078 97.4616 194.748 97.7435 194.482 98.0842C194.217 98.4219 194.083 98.8185 194.083 99.2708C194.083 99.6487 194.186 99.9771 194.395 100.259C194.604 100.541 194.916 100.795 195.334 101.021C195.752 101.247 196.292 101.455 196.956 101.644C197.618 101.833 198.407 102.022 199.318 102.208C200.532 102.434 201.774 102.679 203.044 102.942C204.313 103.205 205.471 103.611 206.513 104.156C207.555 104.701 208.419 105.436 209.103 106.359C209.786 107.282 210.126 108.534 210.126 110.117C210.126 111.585 209.786 112.877 209.103 113.986C208.419 115.098 207.546 116.031 206.485 116.783C205.424 117.536 204.198 118.094 202.816 118.45C201.431 118.806 200.017 118.986 198.579 118.986C197.141 118.986 195.752 118.788 194.426 118.391C193.097 117.995 191.915 117.394 190.869 116.585C189.827 115.777 188.991 114.77 188.367 113.562C187.74 112.357 187.428 110.944 187.428 109.324H193.515L193.518 109.327Z" fill="white"/>
<path d="M217.842 86.7302C217.367 86.5413 216.959 86.2686 216.619 85.9124C216.278 85.5561 216.001 85.141 215.795 84.6701C215.586 84.1992 215.483 83.6818 215.483 83.118C215.483 82.5914 215.586 82.0926 215.795 81.6217C216.004 81.1508 216.278 80.745 216.619 80.4073C216.959 80.0696 217.367 79.797 217.842 79.5895C218.316 79.3819 218.837 79.2797 219.405 79.2797C219.973 79.2797 220.494 79.385 220.968 79.5895C221.442 79.797 221.86 80.0696 222.219 80.4073C222.578 80.745 222.855 81.1508 223.043 81.6217C223.233 82.0926 223.327 82.5914 223.327 83.118C223.327 83.6818 223.23 84.2023 223.043 84.6701C222.852 85.141 222.578 85.5561 222.219 85.9124C221.857 86.2717 221.442 86.5444 220.968 86.7302C220.494 86.9192 219.973 87.0121 219.405 87.0121C218.837 87.0121 218.313 86.9192 217.842 86.7302ZM216.107 118.367V91.8697H222.65V118.367H216.107Z" fill="white"/>
<path d="M229.591 99.6673C230.312 97.9728 231.307 96.5136 232.577 95.29C233.847 94.0663 235.354 93.0966 237.101 92.381C238.845 91.6654 240.761 91.3091 242.848 91.3091C244.936 91.3091 246.792 91.6685 248.539 92.381C250.283 93.0966 251.79 94.0663 253.063 95.29C254.333 96.5136 255.328 97.9728 256.049 99.6673C256.77 101.362 257.129 103.19 257.129 105.148C257.129 107.106 256.767 108.924 256.049 110.6C255.328 112.276 254.333 113.735 253.063 114.977C251.793 116.22 250.283 117.189 248.539 117.886C246.795 118.583 244.898 118.93 242.848 118.93C240.799 118.93 238.845 118.583 237.101 117.886C235.357 117.189 233.847 116.22 232.577 114.977C231.307 113.735 230.309 112.276 229.591 110.6C228.871 108.924 228.512 107.109 228.512 105.148C228.512 103.187 228.871 101.362 229.591 99.6673ZM246.006 112.434C246.973 112.019 247.797 111.464 248.48 110.767C249.163 110.07 249.703 109.234 250.102 108.255C250.502 107.276 250.701 106.241 250.701 105.148C250.701 104.054 250.502 102.964 250.102 101.985C249.703 101.006 249.163 100.169 248.48 99.4691C247.797 98.7721 246.973 98.2175 246.006 97.8024C245.039 97.3873 243.987 97.1797 242.848 97.1797C241.71 97.1797 240.602 97.3873 239.635 97.8024C238.668 98.2175 237.844 98.7721 237.161 99.4691C236.477 100.166 235.938 101.006 235.538 101.985C235.139 102.964 234.942 104.017 234.942 105.148C234.942 106.278 235.142 107.276 235.538 108.255C235.938 109.234 236.477 110.073 237.161 110.767C237.844 111.464 238.668 112.019 239.635 112.434C240.602 112.849 241.672 113.057 242.848 113.057C244.025 113.057 245.039 112.849 246.006 112.434Z" fill="white"/>
<path d="M262.988 91.8698H268.679L269.191 95.0886C269.456 94.7137 269.827 94.2986 270.301 93.8463C270.776 93.394 271.371 92.9819 272.092 92.604C272.813 92.2291 273.637 91.9163 274.566 91.6715C275.496 91.4268 276.51 91.3029 277.611 91.3029C279.393 91.3029 280.978 91.5662 282.363 92.0928C283.749 92.6195 284.912 93.363 285.861 94.3234C286.809 95.2837 287.53 96.4424 288.023 97.7962C288.516 99.1531 288.762 100.64 288.762 102.26V118.36H282.276V103.673C282.276 101.604 281.736 100.021 280.653 98.9269C279.574 97.8364 278.101 97.2881 276.245 97.2881C275.334 97.2881 274.491 97.4306 273.715 97.7125C272.938 97.9944 272.236 98.4096 271.609 98.9548C270.981 99.5 270.498 100.169 270.158 100.959C269.818 101.749 269.646 102.635 269.646 103.614L269.534 118.357H262.991V91.8605L262.988 91.8698Z" fill="white"/>
</svg>
