<svg width="25" height="18" viewBox="0 0 25 18" fill="none" xmlns="http://www.w3.org/2000/svg">
<path d="M12.5 13.5C11.6929 13.5 10.8857 13.2458 10.1973 12.7308L0 5.11875V15.75C0 16.9922 1.04932 18 2.34375 18H22.6562C23.9507 18 25 16.9927 25 15.75V5.11875L14.8047 12.7359C14.1162 13.2469 13.3057 13.5 12.5 13.5ZM0.79541 3.81094L11.1567 11.55C11.9473 12.1406 13.0547 12.1406 13.8452 11.55L24.2065 3.81094C24.6631 3.43594 25 2.85938 25 2.25C25 1.00734 23.9502 0 22.6562 0H2.34375C1.04932 0 0 1.00734 0 2.25C0 2.85938 0.293457 3.43594 0.79541 3.81094Z" fill="#2554D2"/>
</svg>
