<svg width="31" height="31" viewBox="0 0 31 31" fill="none" xmlns="http://www.w3.org/2000/svg">
<path d="M20.8584 18.043C21.7666 16.6141 22.2994 14.9187 22.2994 13.0963C22.2994 8.0043 18.1762 3.875 13.0902 3.875C7.99824 3.875 3.875 8.0043 3.875 13.0963C3.875 18.1883 7.99824 22.3176 13.0842 22.3176C14.9309 22.3176 16.6504 21.7727 18.0914 20.8402L18.5092 20.5496L25.0846 27.125L27.125 25.0482L20.5557 18.4729L20.8584 18.043ZM18.2488 7.94375C19.6232 9.31816 20.3801 11.1467 20.3801 13.0902C20.3801 15.0338 19.6232 16.8623 18.2488 18.2367C16.8744 19.6111 15.0459 20.368 13.1023 20.368C11.1588 20.368 9.33027 19.6111 7.95586 18.2367C6.58144 16.8623 5.82461 15.0338 5.82461 13.0902C5.82461 11.1467 6.58144 9.31816 7.95586 7.94375C9.33027 6.56934 11.1588 5.8125 13.1023 5.8125C15.0459 5.8125 16.8744 6.56934 18.2488 7.94375Z" fill="#D1D1D1"/>
</svg>
