<svg width="25" height="25" viewBox="0 0 25 25" fill="none" xmlns="http://www.w3.org/2000/svg">
<path d="M5.20866 12.5H3.12533C1.97949 12.5 1.04199 13.4375 1.04199 14.5833V20.8333C1.04199 21.9792 1.97949 22.9167 3.12533 22.9167H5.20866C6.35449 22.9167 7.29199 21.9792 7.29199 20.8333V14.5833C7.29199 13.4375 6.35449 12.5 5.20866 12.5Z" fill="#2554D2"/>
<path d="M13.5417 2.0835H11.4583C10.3125 2.0835 9.375 3.021 9.375 4.16683V20.8335C9.375 21.9793 10.3125 22.9168 11.4583 22.9168H13.5417C14.6875 22.9168 15.625 21.9793 15.625 20.8335V4.16683C15.625 3.021 14.6875 2.0835 13.5417 2.0835Z" fill="#2554D2"/>
<path d="M21.8757 8.3335H19.7923C18.6465 8.3335 17.709 9.271 17.709 10.4168V20.8335C17.709 21.9793 18.6465 22.9168 19.7923 22.9168H21.8757C23.0215 22.9168 23.959 21.9793 23.959 20.8335V10.4168C23.959 9.271 23.0215 8.3335 21.8757 8.3335Z" fill="#2554D2"/>
</svg>
